<svg width="121" height="15" viewBox="0 0 121 15" fill="none" xmlns="http://www.w3.org/2000/svg">
<path d="M6.38 5.96H13.66C16.92 5.96 18.68 7.18 18.68 9.62C18.68 12.36 17.02 14 12.94 14H0.48L3.14 10.56H13.26C14.24 10.56 14.68 10.28 14.68 9.58C14.68 8.9 14.24 8.62 13.26 8.62H5.98C2.54 8.62 0.96 7.08 0.96 4.78C0.96 2.26 2.64 0.619998 6.7 0.619998H18.32L15.66 4.1H6.38C5.42 4.1 4.96 4.34 4.96 5.02C4.96 5.7 5.42 5.96 6.38 5.96ZM36.0778 12.8L33.9378 9.02C32.7778 6.96 32.2378 5.96 31.7778 5C31.3578 5.96 30.8178 6.94 29.6578 9L27.5178 12.8C27.0378 13.66 26.3178 14.22 25.2378 14.22C24.1978 14.22 23.2778 13.62 22.9178 12.38L19.5178 0.619998H23.6578L24.9178 5.28C25.3378 6.78 25.6178 7.88 25.8178 8.96C26.2578 8.02 26.7778 7 27.6978 5.26L29.4978 1.9C30.1978 0.579999 30.8778 0.399999 31.8578 0.399999C32.8578 0.399999 33.5578 0.579999 34.2578 1.9L36.0378 5.28C37.0378 7.12 37.4978 8.06 37.9178 8.96C38.1378 7.9 38.4378 6.76 38.8378 5.28L40.0978 0.619998H44.1378L40.6778 12.38C40.3178 13.62 39.3978 14.22 38.3578 14.22C37.2978 14.22 36.5778 13.68 36.0778 12.8ZM59.6731 0.619998H64.8731L56.9331 9.58V14H52.7731V9.56L44.6131 0.619998H49.9331L53.1331 4.34C53.5531 4.82 54.6731 6.04 54.9531 6.44C55.2131 6.06 55.6731 5.48 56.6331 4.32L59.6731 0.619998ZM65.2395 0.619998H70.3195L76.3395 9.5L82.6195 0.619998H87.4995L78.9395 12.72C78.3595 13.5 77.5395 14.22 76.2595 14.22C75.0195 14.22 74.1995 13.56 73.6195 12.72L65.2395 0.619998ZM93.1348 10.56H104.515L101.855 14H88.9748V0.619998H104.475L101.795 4.1H93.1348V5.7H103.735L101.355 8.74H93.1348V10.56ZM110.068 10.56H120.428L117.748 14H105.928V0.619998H110.068V10.56Z" fill="#1C1C1C"/>
</svg>
